# xmcd
#
# Track frame offsets: 
#        150
#        17092
#        28970
#        49417
#        61637
#        81142
#        95020
#        114752
#        129997
#        148062
#        161392
#        176007
#        196390
#        208870
#        223042
#        241597
#        257547
#        278762
#        300845
#        322882
#
# Disc length: 4593 seconds
#
# Revision: 2
# Processed by: cddbd v1.5.2PL0 Copyright (c) Steve Scherf et al.
# Submitted via: ExactAudioCopyFreeDBPlugin 1.0
#
DISCID=0d11ef14
DTITLE=Van Morrison - The Best of Van Morrison
DYEAR=1990
DGENRE=Rock
TTITLE0=Bright side of the Road
TTITLE1=Gloria
TTITLE2=Moondance
TTITLE3=Baby please don't go
TTITLE4=Have I told you lately
TTITLE5=Brown eyed Girl
TTITLE6=Sweet thing
TTITLE7=Warm Love
TTITLE8=Wonderful remark
TTITLE9=Jackie Wilson said
TTITLE10=Full force Gale
TTITLE11=And it stoned me
TTITLE12=Here comes the night
TTITLE13=Domino
TTITLE14=Did ye get healed
TTITLE15=Wild night
TTITLE16=Cleaning Windows
TTITLE17=Whenever God shines His Light
TTITLE18=Queen of the Slipstream
TTITLE19=Dweller on the Threshold
EXTD=
EXTT0=
EXTT1=
EXTT2=
EXTT3=
EXTT4=
EXTT5=
EXTT6=
EXTT7=
EXTT8=
EXTT9=
EXTT10=
EXTT11=
EXTT12=
EXTT13=
EXTT14=
EXTT15=
EXTT16=
EXTT17=
EXTT18=
EXTT19=
PLAYORDER=
